<svg width="220" height="220" viewBox="0 0 220 220" fill="none" xmlns="http://www.w3.org/2000/svg">
<rect width="220" height="220" rx="110" fill="#FFBFE1"/>
<path d="M186.643 180.366L60.3208 201.419C50.528 203.052 41.2662 196.436 39.634 186.643L18.5804 60.3212C16.9483 50.5283 23.5638 41.2666 33.3567 39.6344L159.679 18.5808C169.471 16.9486 178.733 23.5642 180.365 33.357L201.419 159.679C203.051 169.472 196.436 178.734 186.643 180.366Z" fill="#FFBFE1"/>
<path d="M144.782 127.068C144.782 127.068 145.043 154.946 108.934 161.313L104.158 134.231L84.1454 137.76C80.2411 138.448 76.518 135.842 75.8296 131.937V131.937C75.6036 130.656 75.7302 129.337 76.1957 128.122L93.8963 81.9235C94.3618 80.7086 94.4883 79.39 94.2624 78.1087V78.1087C93.5739 74.2044 89.8508 71.5975 85.9465 72.2859L56.9062 77.4065" stroke="#0E2ADF" stroke-width="18.3333"/>
<rect x="118.504" y="57.2357" width="27.5" height="36.6667" rx="13.75" transform="rotate(-10 118.504 57.2357)" fill="#0E2ADF"/>
</svg>
