<svg width="32" height="32" viewBox="0 0 32 32" fill="none" xmlns="http://www.w3.org/2000/svg">
<path d="M24.5 27H5V14.5V13.2192L3.75746 13.5299L3 13.7192V9.78078L29 3.28078V7.21922L27.7575 7.52986L27 7.71922V8.5V23.6667L24.5 27Z" fill="#AD9CFF" stroke="#4B3980" stroke-width="2"/>
<path d="M9 21C9 19.3431 10.3431 18 12 18C13.6569 18 15 19.3431 15 21V26H9V21Z" fill="#4B3980"/>
<path d="M24 8L9.27607 11.681C8.52611 11.8685 8 12.5423 8 13.3153C8 14.2458 8.75425 15 9.68466 15H24V8Z" fill="#C6DBFF"/>
<path fill-rule="evenodd" clip-rule="evenodd" d="M17.9314 9.51715L23.4142 15H20.5858L15.6686 10.0828L17.9314 9.51715ZM10.0686 11.4828L12.3314 10.9172L16.4142 15H13.5858L10.0686 11.4828Z" fill="white"/>
<path fill-rule="evenodd" clip-rule="evenodd" d="M30 23C30 25.2091 28.2091 27 26 27H21C19.3431 27 18 25.6569 18 24C18 22.3431 19.3431 21 21 21C21.4917 21 21.9557 21.1183 22.3652 21.3279C22.9984 19.9538 24.3878 19 26 19C28.2091 19 30 20.7909 30 23Z" fill="#98DDB5"/>
<path d="M22.3652 21.3279L21.9095 22.218C22.152 22.3422 22.4346 22.362 22.692 22.273C22.9494 22.184 23.1594 21.9938 23.2734 21.7464L22.3652 21.3279ZM26 28C28.7614 28 31 25.7614 31 23H29C29 24.6569 27.6569 26 26 26V28ZM26 26H21V28H26V26ZM17 24C17 26.2091 18.7909 28 21 28V26C19.8954 26 19 25.1046 19 24H17ZM21 20C18.7909 20 17 21.7909 17 24H19C19 22.8954 19.8954 22 21 22V20ZM22.8209 20.4378C22.2736 20.1576 21.6538 20 21 20V22C21.3296 22 21.6378 22.0789 21.9095 22.218L22.8209 20.4378ZM26 18C23.9832 18 22.2474 19.194 21.457 20.9094L23.2734 21.7464C23.7493 20.7136 24.7924 20 26 20V18ZM31 23C31 20.2386 28.7614 18 26 18V20C27.6569 20 29 21.3431 29 23H31Z" fill="#116F39"/>
</svg>
