<svg width="20" height="20" viewBox="0 0 20 20" fill="none" xmlns="http://www.w3.org/2000/svg">
<path fill-rule="evenodd" clip-rule="evenodd" d="M2.5 3.75C2.5 1.67893 4.17893 0 6.25 0H13.75C15.8211 0 17.5 1.67893 17.5 3.75V6.25H20V12.5H17.5V20H15V17.5H5V20H2.5V12.5V3.75ZM5 3.75H15V10H5V3.75ZM6.25 15C6.94036 15 7.5 14.4404 7.5 13.75C7.5 13.0596 6.94036 12.5 6.25 12.5C5.55964 12.5 5 13.0596 5 13.75C5 14.4404 5.55964 15 6.25 15ZM15 13.75C15 14.4404 14.4404 15 13.75 15C13.0596 15 12.5 14.4404 12.5 13.75C12.5 13.0596 13.0596 12.5 13.75 12.5C14.4404 12.5 15 13.0596 15 13.75Z" fill="#FFBFE1"/>
<path d="M2.5 12.5L2.5 6.25H0V12.5H2.5Z" fill="#FFBFE1"/>
</svg>
