<svg width="32" height="32" viewBox="0 0 32 32" fill="none" xmlns="http://www.w3.org/2000/svg">
<path d="M16 23.6984C15.7581 24.2872 15.466 24.8221 15.1175 25.3013C13.591 27.4002 11.3327 28 9 28C6.66727 28 4.40896 27.4002 2.88253 25.3013C1.48986 23.3864 1 20.5842 1 17C1 16.6573 1.00455 16.324 1.01375 16C1.00455 15.676 1 15.3427 1 15C1 11.4158 1.48986 8.61357 2.88253 6.69866C4.40896 4.59981 6.66727 4 9 4C11.3327 4 13.591 4.59981 15.1175 6.69866C15.466 7.17795 15.7581 7.71283 16 8.30164C16.2419 7.71283 16.534 7.17795 16.8825 6.69866C18.409 4.59981 20.6673 4 23 4C25.3327 4 27.591 4.59981 29.1175 6.69866C30.5101 8.61357 31 11.4158 31 15C31 15.3427 30.9955 15.676 30.9863 16C30.9955 16.324 31 16.6573 31 17C31 20.5842 30.5101 23.3864 29.1175 25.3013C27.591 27.4002 25.3327 28 23 28C20.6673 28 18.409 27.4002 16.8825 25.3013C16.534 24.8221 16.2419 24.2872 16 23.6984Z" fill="#4A5764"/>
<path d="M15 15C15 15.3454 14.9951 15.6786 14.9854 16C14.9951 16.3214 15 16.6546 15 17C15 24 13 26 9 26C5 26 3 24 3 17C3 16.6546 3.00487 16.3214 3.01461 16C3.00487 15.6786 3 15.3454 3 15C3 8 5 6 9 6C13 6 15 8 15 15Z" fill="#7E8FA0"/>
<path d="M23 26C27 26 29 24 29 17C29 16.6546 28.9951 16.3214 28.9854 16C28.9951 15.6786 29 15.3454 29 15C29 8 27 6 23 6C19 6 17 8 17 15C17 15.3454 17.0049 15.6786 17.0146 16C17.0049 16.3214 17 16.6546 17 17C17 24 19 26 23 26Z" fill="#7E8FA0"/>
<path d="M15 15C15 22 13 24 9 24C5 24 3 22 3 15C3 8 5 6 9 6C13 6 15 8 15 15Z" fill="url(#paint0_linear_103_150)"/>
<path d="M29 15C29 22 27 24 23 24C19 24 17 22 17 15C17 8 19 6 23 6C27 6 29 8 29 15Z" fill="url(#paint1_linear_103_150)"/>
<path d="M5.5 13C6.32843 13 7 12.3284 7 11.5C7 11.4121 6.99244 11.326 6.97794 11.2423C6.88445 10.7024 6.95204 10 7.5 10C9 10 10 11 10 14V16C10 19 9 20 7.5 20C6.11929 20 5 19 5 16V14C5 13.7857 5.0051 13.5816 5.01512 13.3874C5.02729 13.1516 5.26391 13 5.5 13Z" fill="#133A80"/>
<path d="M19.5 13C20.3284 13 21 12.3284 21 11.5C21 11.4121 20.9924 11.326 20.9779 11.2423C20.8844 10.7024 20.952 10 21.5 10C23 10 24 11 24 14V16C24 19 23 20 21.5 20C20.1193 20 19 19 19 16V14C19 13.7857 19.0051 13.5816 19.0151 13.3874C19.0273 13.1516 19.2639 13 19.5 13Z" fill="#133A80"/>
<path d="M7 11.5C7 12.3284 6.32843 13 5.5 13C5.26391 13 5.02729 13.1516 5.01512 13.3874C5.0051 13.5816 5 13.7857 5 14C5 17 6.11929 18 7.5 18C9 18 10 17 10 14C10 11 9 10 7.5 10C6.95204 10 6.88445 10.7024 6.97794 11.2423C6.99244 11.326 7 11.4121 7 11.5Z" fill="#3B7DF7"/>
<path d="M21 11.5C21 12.3284 20.3284 13 19.5 13C19.2639 13 19.0273 13.1516 19.0151 13.3874C19.0051 13.5816 19 13.7857 19 14C19 17 20.1193 18 21.5 18C23 18 24 17 24 14C24 11 23 10 21.5 10C20.952 10 20.8844 10.7024 20.9779 11.2423C20.9924 11.326 21 11.4121 21 11.5Z" fill="#3B7DF7"/>
<defs>
<linearGradient id="paint0_linear_103_150" x1="9" y1="6" x2="9" y2="24" gradientUnits="userSpaceOnUse">
<stop stop-color="white"/>
<stop offset="1" stop-color="#E2E5E9"/>
</linearGradient>
<linearGradient id="paint1_linear_103_150" x1="23" y1="6" x2="23" y2="24" gradientUnits="userSpaceOnUse">
<stop stop-color="white"/>
<stop offset="1" stop-color="#E2E5E9"/>
</linearGradient>
</defs>
</svg>
