<svg width="20" height="20" viewBox="0 0 20 20" fill="none" xmlns="http://www.w3.org/2000/svg">
<path fill-rule="evenodd" clip-rule="evenodd" d="M10.0215 11.6666C10.2878 11.4234 10.5598 11.1779 10.8362 10.9291L11.0649 10.7234C11.3286 10.4861 11.596 10.2453 11.8643 10C14.6321 7.46975 17.5 4.46381 17.5 0H15C15 0.899792 14.8474 1.72503 14.5706 2.5H5.42943C5.15263 1.72503 5 0.899792 5 0H2.5C2.5 4.46381 5.36793 7.46976 8.13566 10C5.36793 12.5302 2.5 15.5362 2.5 20H5C5 19.1002 5.15263 18.275 5.42943 17.5H14.5706C14.8474 18.275 15 19.1002 15 20H17.5C17.5 16.5144 15.7513 13.9177 13.6672 11.7424C13.3968 11.9894 13.1334 12.2259 12.8811 12.4525L12.5086 12.7873C12.2657 13.006 12.0319 13.2178 11.8072 13.4235C12.3091 13.943 12.7693 14.4648 13.1746 15H6.82541C7.68065 13.8707 8.78012 12.8013 10 11.6863L10.0215 11.6666ZM6.82541 5H13.1746C12.3193 6.12931 11.2199 7.19867 10 8.31374C8.78012 7.19867 7.68065 6.12931 6.82541 5Z" fill="#FFBFE1"/>
</svg>
