<svg width="64" height="64" viewBox="0 0 64 64" fill="none" xmlns="http://www.w3.org/2000/svg">
<path d="M32 47.3967C31.5161 48.5743 30.9321 49.6441 30.2349 50.6027C27.1821 54.8004 22.6655 56 18 56C13.3345 56 8.81792 54.8004 5.76506 50.6027C2.97972 46.7729 2 41.1684 2 34C2 33.3146 2.00909 32.648 2.02749 32C2.00909 31.352 2 30.6854 2 30C2 22.8316 2.97972 17.2271 5.76506 13.3973C8.81792 9.19963 13.3345 8 18 8C22.6655 8 27.1821 9.19963 30.2349 13.3973C30.9321 14.3559 31.5161 15.4257 32 16.6033C32.4839 15.4257 33.0679 14.3559 33.7651 13.3973C36.8179 9.19963 41.3345 8 46 8C50.6655 8 55.1821 9.19963 58.2349 13.3973C61.0203 17.2271 62 22.8316 62 30C62 30.6854 61.9909 31.352 61.9725 32C61.9909 32.648 62 33.3146 62 34C62 41.1684 61.0203 46.7729 58.2349 50.6027C55.1821 54.8004 50.6655 56 46 56C41.3345 56 36.8179 54.8004 33.7651 50.6027C33.0679 49.6441 32.4839 48.5743 32 47.3967Z" fill="#4A5764"/>
<path d="M30 30C30 30.6908 29.9903 31.3572 29.9708 32C29.9903 32.6428 30 33.3092 30 34C30 48 26 52 18 52C10 52 6 48 6 34C6 33.3092 6.00974 32.6428 6.02921 32C6.00974 31.3572 6 30.6908 6 30C6 16 10 12 18 12C26 12 30 16 30 30Z" fill="#7E8FA0"/>
<path d="M46 52C54 52 58 48 58 34C58 33.3092 57.9903 32.6428 57.9708 32C57.9903 31.3572 58 30.6908 58 30C58 16 54 12 46 12C38 12 34 16 34 30C34 30.6908 34.0097 31.3572 34.0292 32C34.0097 32.6428 34 33.3092 34 34C34 48 38 52 46 52Z" fill="#7E8FA0"/>
<path d="M30 30C30 44 26 48 18 48C10 48 6 44 6 30C6 16 10 12 18 12C26 12 30 16 30 30Z" fill="url(#paint0_linear_361_567)"/>
<path d="M58 30C58 44 54 48 46 48C38 48 34 44 34 30C34 16 38 12 46 12C54 12 58 16 58 30Z" fill="url(#paint1_linear_361_567)"/>
<path d="M11 26C12.6569 26 14 24.6569 14 23C14 22.8242 13.9849 22.652 13.9559 22.4846C13.7689 21.4047 13.9041 20 15 20C18 20 20 22 20 28V32C20 38 18 40 15 40C12.2386 40 10 38 10 32V28C10 27.5714 10.0102 27.1633 10.0302 26.7748C10.0546 26.3032 10.5278 26 11 26Z" fill="#133A80"/>
<path d="M39 26C40.6569 26 42 24.6569 42 23C42 22.8242 41.9849 22.652 41.9559 22.4846C41.7689 21.4047 41.9041 20 43 20C46 20 48 22 48 28V32C48 38 46 40 43 40C40.2386 40 38 38 38 32V28C38 27.5714 38.0102 27.1633 38.0302 26.7748C38.0546 26.3032 38.5278 26 39 26Z" fill="#133A80"/>
<path d="M14 23C14 24.6569 12.6569 26 11 26C10.5278 26 10.0546 26.3032 10.0302 26.7748C10.0102 27.1633 10 27.5714 10 28C10 34 12.2386 36 15 36C18 36 20 34 20 28C20 22 18 20 15 20C13.9041 20 13.7689 21.4047 13.9559 22.4846C13.9849 22.652 14 22.8242 14 23Z" fill="#3B7DF7"/>
<path d="M42 23C42 24.6569 40.6569 26 39 26C38.5278 26 38.0546 26.3032 38.0302 26.7748C38.0102 27.1633 38 27.5714 38 28C38 34 40.2386 36 43 36C46 36 48 34 48 28C48 22 46 20 43 20C41.9041 20 41.7689 21.4047 41.9559 22.4846C41.9849 22.652 42 22.8242 42 23Z" fill="#3B7DF7"/>
<defs>
<linearGradient id="paint0_linear_361_567" x1="18" y1="12" x2="18" y2="48" gradientUnits="userSpaceOnUse">
<stop stop-color="white"/>
<stop offset="1" stop-color="#E2E5E9"/>
</linearGradient>
<linearGradient id="paint1_linear_361_567" x1="46" y1="12" x2="46" y2="48" gradientUnits="userSpaceOnUse">
<stop stop-color="white"/>
<stop offset="1" stop-color="#E2E5E9"/>
</linearGradient>
</defs>
</svg>
