<svg width="20" height="20" viewBox="0 0 20 20" fill="none" xmlns="http://www.w3.org/2000/svg">
<path d="M7.10782 1.26485e-07L12.8922 0L15.2225 4.09782L17.4103 2.83471L18.0353 3.91724L16.6627 9.03984L11.5401 7.66724L10.9151 6.58471L13.0574 5.34785L11.4379 2.5H8.56211L7.86939 3.71816L5.70428 2.46813L7.10782 1.26485e-07Z" fill="#7A8085"/>
<path d="M16.4561 11.3246L17.1299 12.5095L15.757 15H12.5L12.5 12.4999H11.25L7.50001 16.2499L11.25 19.9999H12.5L12.5 17.5H17.2335L19.9951 12.4905L18.6212 10.0746L16.4561 11.3246Z" fill="#7A8085"/>
<path d="M4.2431 15L5.62501 15L5.62501 17.5H2.76659L0.00491333 12.4905L2.30584 8.44431L0.0897494 7.16485L0.714748 6.08232L5.83735 4.70972L7.20994 9.83232L6.58494 10.9149L4.47095 9.69434L2.87009 12.5095L4.2431 15Z" fill="#7A8085"/>
</svg>
