<svg width="56" height="56" viewBox="0 0 56 56" fill="none" xmlns="http://www.w3.org/2000/svg">
<rect width="56" height="56" rx="28" fill="#F1C6DD"/>
<path d="M33.6118 13.9605C31.7081 14.2962 30.4371 16.1115 30.7727 18.0151L31.1779 20.313C31.5136 22.2166 33.3289 23.4877 35.2325 23.152C37.1361 22.8164 38.4072 21.0011 38.0715 19.0974L37.6664 16.7996C37.3307 14.8959 35.5154 13.6248 33.6118 13.9605Z" fill="#0E2ADF"/>
<path d="M14.8904 22.0009L21.4022 20.8527L17.2164 31.7777C16.9466 32.4818 16.8733 33.2461 17.0042 33.9887C17.4032 36.2516 19.5611 37.7626 21.824 37.3636L24.6203 36.8705L25.8359 43.7642L28.1338 43.359C33.3924 42.4318 36.2765 39.8489 37.7626 37.2547C38.4798 36.0026 38.8334 34.8155 39.0088 33.9335C39.0969 33.4907 39.1415 33.1179 39.164 32.8425C39.1753 32.7045 39.1811 32.59 39.1841 32.5024C39.1855 32.4586 39.1863 32.4214 39.1866 32.3913L39.1869 32.3514L39.1869 32.3355L39.1868 32.3285L39.1868 32.3253C39.1868 32.3253 39.1868 32.3223 36.8535 32.3441C34.5203 32.366 34.5203 32.3632 34.5203 32.3632L34.5203 32.3604L34.5202 32.3554L34.5202 32.3472L34.5203 32.3378L34.52 32.346C34.5194 32.3632 34.5177 32.4028 34.5129 32.462C34.5031 32.581 34.4811 32.7752 34.4318 33.023C34.3325 33.5222 34.1283 34.2105 33.7132 34.9351C33.1044 35.9979 31.9454 37.3153 29.5883 38.1709L28.4058 31.4644L21.894 32.6126L26.0798 21.6876C26.3496 20.9834 26.4229 20.2192 26.292 19.4765C25.893 17.2136 23.7351 15.7027 21.4722 16.1017L14.0801 17.4051L14.8904 22.0009Z" fill="#0E2ADF"/>
</svg>
