<?xml version="1.0" encoding="utf-8"?>
<!-- Generator: Adobe Illustrator 16.0.4, SVG Export Plug-In . SVG Version: 6.00 Build 0)  -->
<!DOCTYPE svg PUBLIC "-//W3C//DTD SVG 1.1//EN" "http://www.w3.org/Graphics/SVG/1.1/DTD/svg11.dtd">
<svg version="1.1" id="Layer_1" xmlns="http://www.w3.org/2000/svg" xmlns:xlink="http://www.w3.org/1999/xlink" x="0px" y="0px"
	 width="763.664px" height="226px" viewBox="0 0 763.664 226" enable-background="new 0 0 763.664 226" xml:space="preserve">
<g>
	<path fill="#17945C" d="M113,0C75.794,0,47.352,9.577,28.464,28.464C9.576,47.351,0,75.794,0,113s9.577,65.646,28.464,84.535
		C47.351,216.423,75.794,226,113,226s65.648-9.577,84.536-28.465C216.424,178.646,226,150.206,226,113s-9.577-65.648-28.464-84.536
		C178.649,9.576,150.206,0,113,0z M113,216c-69.309,0-103-33.691-103-103C10,43.691,43.691,10,113,10s103,33.691,103,103
		C216,182.309,182.309,216,113,216z"/>
	<path fill="#17945C" d="M136,71.403V61.007H90v10.396L65.649,79.52l-39.018,29.263l10.032,70.224H64v-54h2.707l5.728,63h81.132
		l5.728-63H162v54h27.336l10.032-70.224L160.351,79.52L136,71.403z M149.053,127.2L113,141.622L76.947,127.2l-1.531-16.842
		L113,125.393l37.584-15.034L149.053,127.2z M100,78.611v-7.604h26v7.604l26.662,8.887l-0.213,2.344L113,105.622l-39.449-15.78
		l-0.213-2.344L100,78.611z M54,115.007v54h-8.664l-7.968-55.776l26.463-19.847l1.966,21.624L54,115.007L54,115.007z
		 M81.566,178.007l-2.753-30.289L113,161.393l34.188-13.677l-2.753,30.291H81.566z M180.664,169.007H172v-54h-11.798l1.966-21.624
		l26.463,19.847L180.664,169.007z"/>
	<path fill="#17945C" d="M136,53.007h13v-10h-13.554c-2.29-10.285-11.481-18-22.446-18c-12.682,0-23,10.318-23,23v5h41H136z
		 M113,43.007v-8c5.397,0,10.037,3.306,12,8H113z"/>
	<polygon fill="#17945C" points="324.249,80.035 310.167,116.663 296.085,80.035 280.694,80.035 275,143.52 289.467,143.52 
		292.469,105.89 292.854,105.89 305.857,143.134 314.476,143.134 327.479,105.89 327.864,105.89 330.866,143.52 345.333,143.52 
		339.639,80.035 	"/>
	<path fill="#17945C" d="M380.747,107.814c-3.231-3.155-7.618-4.925-12.928-4.925c-11.542,0-19.622,9.388-19.622,20.929
		c0,11.543,8.08,20.854,19.622,20.854c5.387,0,10.004-2.385,12.928-5.616h0.154v4.463h13.466v-39.477h-13.62V107.814z
		 M371.898,133.055c-5.542,0-9.234-3.849-9.234-9.234c0-5.463,4.078-9.312,9.234-9.312c5.077,0,9.156,3.849,9.156,9.312
		C381.056,129.206,377.207,133.055,371.898,133.055z"/>
	<path fill="#17945C" d="M432.189,107.814c-3.23-3.155-7.617-4.925-12.929-4.925c-11.541,0-19.621,9.388-19.621,20.929
		c0,11.543,8.08,20.854,19.621,20.854c5.389,0,10.005-2.385,12.929-5.616h0.154v4.463h13.466V77.341h-13.62V107.814z
		 M423.341,133.055c-5.541,0-9.233-3.849-9.233-9.234c0-5.463,4.077-9.312,9.233-9.312c5.079,0,9.158,3.849,9.158,9.312
		C432.499,129.206,428.651,133.055,423.341,133.055z"/>
	<path fill="#17945C" d="M472.646,102.889c-11.929,0-21.7,9.388-21.7,20.929c0,11.466,9.771,20.854,21.7,20.854
		c8.771,0,16.005-2.848,20.468-10.312l-9.851-4.926c-3.31,3.541-5.231,4.388-9.618,4.388c-3.463,0-8.54-2.078-8.54-8.156h28.623
		c0.078-0.463,0.078-1.31,0.078-1.849C493.808,109.969,484.649,102.889,472.646,102.889z M465.49,118.125
		c0.229-3.616,2.848-6.387,7.541-6.387c4.001,0,6.848,2.231,7.463,6.387H465.49z"/>
	<circle fill="#17945C" cx="528.197" cy="87.73" r="8.08"/>
	<rect x="521.194" y="104.043" fill="#17945C" width="13.62" height="39.477"/>
	<path fill="#17945C" d="M567.678,102.889c-4.31,0-8.232,2.231-11.312,5.31h-0.154v-4.156h-13.62v39.477h13.62v-22.315
		c0-3.925,4.002-7.695,8.08-7.695c4.386,0,7.078,3.771,7.078,7.695v22.315h13.621v-26.01
		C584.991,106.505,574.91,102.889,567.678,102.889z"/>
	<polygon fill="#17945C" points="628.922,80.035 614.456,80.035 614.456,143.52 650.777,143.52 650.777,130.82 628.922,130.82 	"/>
	<path fill="#17945C" d="M685.291,129.438c-3.308,3.539-5.231,4.387-9.618,4.387c-3.463,0-8.541-2.078-8.541-8.156h28.625
		c0.077-0.463,0.077-1.309,0.077-1.848c0-13.852-9.157-20.93-21.161-20.93c-11.928,0-21.7,9.388-21.7,20.93
		c0,11.465,9.772,20.854,21.7,20.854c8.771,0,16.006-2.848,20.469-10.312L685.291,129.438z M675.058,111.738
		c4.002,0,6.851,2.231,7.466,6.387h-15.007C667.747,114.509,670.364,111.738,675.058,111.738z"/>
	<polygon fill="#17945C" points="741.938,104.043 726.01,104.043 719.16,113.2 712.312,104.043 696.384,104.043 710.851,122.896 
		693.998,143.52 710.466,143.52 719.16,132.359 727.856,143.52 744.323,143.52 727.472,122.896 	"/>
	<path fill="#17945C" d="M754.814,127.052c-4.849,0-8.772,3.925-8.772,8.849c0,4.85,3.925,8.772,8.772,8.772
		c4.925,0,8.85-3.924,8.85-8.772C763.664,130.977,759.739,127.052,754.814,127.052z"/>
</g>
</svg>
