<?xml version="1.0" encoding="utf-8"?>
<!-- Generator: Adobe Illustrator 16.0.4, SVG Export Plug-In . SVG Version: 6.00 Build 0)  -->
<!DOCTYPE svg PUBLIC "-//W3C//DTD SVG 1.1//EN" "http://www.w3.org/Graphics/SVG/1.1/DTD/svg11.dtd">
<svg version="1.1" id="Layer_1" xmlns="http://www.w3.org/2000/svg" xmlns:xlink="http://www.w3.org/1999/xlink" x="0px" y="0px"
	 width="762.662px" height="226px" viewBox="14.037 -154.007 762.662 226" enable-background="new 14.037 -154.007 762.662 226"
	 xml:space="preserve">
<g>
	<path fill="#17945C" d="M127.037,71.993c-37.206,0-65.648-9.577-84.536-28.465C23.613,24.64,14.037-3.801,14.037-41.007
		s9.577-65.648,28.464-84.536c18.887-18.888,47.33-28.464,84.536-28.464s65.648,9.577,84.536,28.464
		c18.888,18.887,28.464,47.33,28.464,84.536s-9.577,65.647-28.464,84.535C192.686,62.416,164.243,71.993,127.037,71.993z
		 M127.037-144.007c-69.309,0-103,33.691-103,103s33.691,103,103,103s103-33.691,103-103S196.345-144.007,127.037-144.007z"/>
</g>
<g>
	<polygon fill="#17945C" points="167.603,34 86.471,34 77.057,-69.547 87.016,-70.453 95.603,24 158.471,24 167.057,-70.453 
		177.016,-69.547 	"/>
</g>
<g>
	<polygon fill="#17945C" points="203.373,25 176.037,25 176.037,-29 172.037,-29 172.037,-39 186.037,-39 186.037,15 194.7,15 
		202.668,-40.776 169.686,-65.513 140.037,-75.396 140.037,-83 114.037,-83 114.037,-75.396 84.388,-65.513 51.405,-40.776 
		59.373,15 68.037,15 68.037,-39 82.037,-39 82.037,-29 78.037,-29 78.037,25 50.7,25 40.668,-45.224 79.686,-74.487 
		104.037,-82.604 104.037,-93 150.037,-93 150.037,-82.604 174.388,-74.487 213.405,-45.224 	"/>
</g>
<g>
	<path fill="#17945C" d="M150.037-101h-46v-5c0-12.682,10.318-23,23-23c12.682,0,23,10.318,23,23V-101z M115.037-111h24
		c-1.963-4.694-6.603-8-12-8S117-115.694,115.037-111z"/>
</g>
<g>
	<rect x="145.037" y="-111" fill="#17945C" width="18" height="10"/>
</g>
<g>
	<polygon fill="#17945C" points="127.037,-37.615 80.18,-56.357 83.894,-65.643 127.037,-48.385 170.18,-65.643 173.894,-56.357 	
		"/>
</g>
<g>
	<polygon fill="#17945C" points="127.037,-28.615 80.18,-47.357 83.894,-56.643 127.037,-39.385 170.18,-56.643 173.894,-47.357 	
		"/>
</g>
<g>
	<polygon fill="#17945C" points="127.037,-1.615 84.424,-18.66 88.138,-27.945 127.037,-12.385 165.935,-27.944 169.648,-18.659 	
		"/>
</g>
<g>
	<polygon fill="#17945C" points="127.037,7.385 85.276,-9.318 88.99,-18.604 127.037,-3.385 165.084,-18.605 168.798,-9.32 	"/>
</g>
<g>
	<g>
		<path fill="#17945C" d="M341.901-48.117h-0.386l-13.004,37.244h-8.618L306.89-48.117h-0.385l-3.002,37.628h-14.467l5.694-63.483
			h15.391l14.082,36.628l14.082-36.628h15.39l5.694,63.483h-14.467L341.901-48.117z"/>
	</g>
	<g>
		<path fill="#17945C" d="M382.857-51.118c5.309,0,9.695,1.77,12.928,4.925v-3.771h13.619v39.476h-13.465v-4.463h-0.154
			c-2.924,3.232-7.541,5.617-12.928,5.617c-11.542,0-19.623-9.312-19.623-20.854S371.315-51.118,382.857-51.118z M386.935-20.953
			c5.311,0,9.158-3.848,9.158-9.234c0-5.463-4.08-9.311-9.158-9.311c-5.155,0-9.233,3.848-9.233,9.311
			C377.702-24.801,381.395-20.953,386.935-20.953z"/>
	</g>
	<g>
		<path fill="#17945C" d="M433.298-51.118c5.312,0,9.697,1.77,12.928,4.925v-30.473h13.621v66.177H446.38v-4.463h-0.154
			c-2.924,3.232-7.541,5.617-12.928,5.617c-11.541,0-19.621-9.312-19.621-20.854S421.757-51.118,433.298-51.118z M437.376-20.953
			c5.311,0,9.158-3.848,9.158-9.234c0-5.463-4.078-9.311-9.158-9.311c-5.156,0-9.234,3.848-9.234,9.311
			C428.142-24.801,431.835-20.953,437.376-20.953z"/>
	</g>
	<g>
		<path fill="#17945C" d="M478.14-28.34c0,6.078,5.078,8.156,8.541,8.156c4.389,0,6.311-0.847,9.619-4.387l9.852,4.925
			c-4.465,7.464-11.697,10.312-20.471,10.312c-11.928,0-21.697-9.389-21.697-20.854c0-11.542,9.77-20.93,21.697-20.93
			c12.004,0,21.162,7.08,21.162,20.93c0,0.539,0,1.385-0.078,1.848H478.14z M493.529-35.882c-0.615-4.155-3.461-6.387-7.463-6.387
			c-4.693,0-7.311,2.771-7.541,6.387H493.529z"/>
	</g>
	<g>
		<path fill="#17945C" d="M549.312-66.277c0,4.463-3.617,8.08-8.08,8.08s-8.08-3.617-8.08-8.08s3.617-8.08,8.08-8.08
			S549.312-70.74,549.312-66.277z M534.23-10.488h13.621v-39.476H534.23V-10.488z"/>
	</g>
	<g>
		<path fill="#17945C" d="M554.626-49.964h13.619v4.156h0.154c3.078-3.079,7.002-5.31,11.312-5.31
			c7.232,0,17.312,3.616,17.312,14.621v26.009h-13.621v-22.315c0-3.925-2.691-7.695-7.078-7.695c-4.078,0-8.08,3.77-8.08,7.695
			v22.315h-13.619V-49.964L554.626-49.964z"/>
	</g>
	<g>
		<path fill="#17945C" d="M640.957-23.186h21.855v12.697H626.49v-63.483h14.467V-23.186z"/>
	</g>
	<g>
		<path fill="#17945C" d="M680.167-28.34c0,6.078,5.078,8.156,8.541,8.156c4.387,0,6.311-0.847,9.617-4.387l9.852,4.925
			c-4.463,7.464-11.695,10.312-20.469,10.312c-11.928,0-21.701-9.389-21.701-20.854c0-11.542,9.773-20.93,21.701-20.93
			c12.004,0,21.16,7.08,21.16,20.93c0,0.539,0,1.385-0.076,1.848H680.167z M695.558-35.882c-0.613-4.155-3.463-6.387-7.465-6.387
			c-4.691,0-7.311,2.771-7.541,6.387H695.558z"/>
	</g>
	<g>
		<path fill="#17945C" d="M740.892-10.488l-8.695-11.158l-8.693,11.158h-16.469l16.854-20.623l-14.469-18.853h15.928l6.85,9.157
			l6.85-9.157h15.93l-14.467,18.853l16.852,20.623H740.892z"/>
	</g>
	<g>
		<path fill="#17945C" d="M776.699-18.106c0,4.849-3.924,8.772-8.85,8.772c-4.848,0-8.771-3.924-8.771-8.772
			c0-4.925,3.924-8.849,8.771-8.849C772.775-26.955,776.699-23.031,776.699-18.106z"/>
	</g>
</g>
<g>
	<path fill="#17945C" d="M109.037-106h18v-18C117.096-124,109.037-115.941,109.037-106z"/>
</g>
</svg>
