<?xml version="1.0" encoding="utf-8"?>
<!-- Generator: Adobe Illustrator 16.0.4, SVG Export Plug-In . SVG Version: 6.00 Build 0)  -->
<!DOCTYPE svg PUBLIC "-//W3C//DTD SVG 1.1//EN" "http://www.w3.org/Graphics/SVG/1.1/DTD/svg11.dtd">
<svg version="1.1" id="Layer_1" xmlns="http://www.w3.org/2000/svg" xmlns:xlink="http://www.w3.org/1999/xlink" x="0px" y="0px"
	 width="487.663px" height="341.462px" viewBox="-28.359 -31.362 487.663 341.462"
	 enable-background="new -28.359 -31.362 487.663 341.462" xml:space="preserve">
<g>
	<g>
		<g>
			<path fill="#17945C" d="M24.505,271.319H24.12l-13.004,37.242H2.498l-13.004-37.242h-0.385l-3.002,37.627h-14.467l5.694-63.482
				h15.391l14.082,36.629l14.082-36.629h15.39l5.694,63.482H27.507L24.505,271.319z"/>
		</g>
	</g>
	<g>
		<g>
			<path fill="#17945C" d="M65.461,268.317c5.31,0,9.696,1.77,12.928,4.926v-3.771h13.62v39.475H78.543v-4.463h-0.154
				c-2.924,3.232-7.541,5.617-12.928,5.617c-11.542,0-19.622-9.311-19.622-20.854C45.839,277.706,53.919,268.317,65.461,268.317z
				 M69.54,298.481c5.309,0,9.157-3.848,9.157-9.234c0-5.463-4.079-9.311-9.157-9.311c-5.156,0-9.234,3.848-9.234,9.311
				C60.306,294.633,63.998,298.481,69.54,298.481z"/>
		</g>
	</g>
	<g>
		<g>
			<path fill="#17945C" d="M115.902,268.317c5.311,0,9.697,1.77,12.928,4.926V242.77h13.621v66.176h-13.466v-4.463h-0.155
				c-2.923,3.232-7.54,5.617-12.928,5.617c-11.541,0-19.621-9.311-19.621-20.854C96.281,277.706,104.361,268.317,115.902,268.317z
				 M119.981,298.481c5.311,0,9.158-3.848,9.158-9.234c0-5.463-4.079-9.311-9.158-9.311c-5.156,0-9.234,3.848-9.234,9.311
				C110.747,294.633,114.44,298.481,119.981,298.481z"/>
		</g>
	</g>
	<g>
		<g>
			<path fill="#17945C" d="M160.745,291.094c0,6.08,5.078,8.156,8.541,8.156c4.386,0,6.309-0.846,9.618-4.385l9.85,4.924
				c-4.463,7.465-11.696,10.311-20.468,10.311c-11.928,0-21.7-9.387-21.7-20.854c0-11.541,9.772-20.93,21.7-20.93
				c12.003,0,21.161,7.08,21.161,20.93c0,0.539,0,1.387-0.078,1.848H160.745z M176.134,283.553
				c-0.615-4.156-3.462-6.387-7.463-6.387c-4.693,0-7.311,2.77-7.541,6.387H176.134z"/>
		</g>
	</g>
	<g>
		<g>
			<path fill="#17945C" d="M231.916,253.159c0,4.463-3.616,8.078-8.079,8.078s-8.08-3.615-8.08-8.078s3.617-8.08,8.08-8.08
				S231.916,248.696,231.916,253.159z M216.834,308.946h13.621v-39.475h-13.621V308.946z"/>
		</g>
	</g>
	<g>
		<g>
			<path fill="#17945C" d="M237.23,269.471h13.62v4.156h0.154c3.078-3.08,7.002-5.311,11.312-5.311
				c7.232,0,17.313,3.617,17.313,14.621v26.008h-13.621v-22.314c0-3.924-2.692-7.695-7.078-7.695c-4.078,0-8.08,3.771-8.08,7.695
				v22.314h-13.62V269.471z"/>
		</g>
	</g>
	<g>
		<g>
			<path fill="#17945C" d="M323.561,296.25h21.855v12.695h-36.321v-63.482h14.466V296.25z"/>
		</g>
	</g>
	<g>
		<g>
			<path fill="#17945C" d="M362.771,291.094c0,6.08,5.078,8.156,8.541,8.156c4.387,0,6.311-0.846,9.618-4.385l9.851,4.924
				c-4.463,7.465-11.697,10.311-20.469,10.311c-11.928,0-21.7-9.387-21.7-20.854c0-11.541,9.772-20.93,21.7-20.93
				c12.004,0,21.161,7.08,21.161,20.93c0,0.539,0,1.387-0.077,1.848H362.771z M378.162,283.553
				c-0.615-4.156-3.463-6.387-7.465-6.387c-4.693,0-7.311,2.77-7.541,6.387H378.162z"/>
		</g>
	</g>
	<g>
		<g>
			<path fill="#17945C" d="M423.496,308.946L414.8,297.79l-8.694,11.156h-16.468l16.853-20.621l-14.467-18.854h15.928l6.849,9.156
				l6.85-9.156h15.929l-14.467,18.854l16.852,20.621H423.496z"/>
		</g>
	</g>
	<g>
		<g>
			<path fill="#17945C" d="M459.304,301.329c0,4.848-3.925,8.771-8.85,8.771c-4.848,0-8.772-3.924-8.772-8.771
				c0-4.926,3.925-8.85,8.772-8.85C455.379,292.479,459.304,296.403,459.304,301.329z"/>
		</g>
	</g>
</g>
<g>
	<g>
		<path fill="#17945C" d="M215.473,194.637c-37.207,0-65.648-9.577-84.536-28.465c-18.888-18.887-28.464-47.328-28.464-84.535
			c0-37.205,9.576-65.647,28.464-84.535s47.329-28.464,84.536-28.464c37.206,0,65.647,9.577,84.535,28.464
			s28.465,47.33,28.465,84.535c0,37.207-9.577,65.648-28.465,84.535C281.12,185.06,252.679,194.637,215.473,194.637z
			 M215.473-21.362c-69.309,0-103,33.691-103,103c0,69.309,33.691,103,103,103s103-33.691,103-103
			C318.473,12.329,284.781-21.362,215.473-21.362z"/>
	</g>
	<g>
		<polygon fill="#17945C" points="256.039,156.643 174.906,156.643 165.492,53.096 175.451,52.191 184.038,146.643 246.906,146.643 
			255.493,52.191 265.452,53.096 		"/>
	</g>
	<g>
		<polygon fill="#17945C" points="291.81,147.643 264.473,147.643 264.473,93.643 260.473,93.643 260.473,83.643 274.473,83.643 
			274.473,137.643 283.136,137.643 291.104,81.868 258.122,57.13 228.473,47.248 228.473,39.644 202.473,39.644 202.473,47.248 
			172.823,57.13 139.841,81.868 147.809,137.643 156.473,137.643 156.473,83.643 170.473,83.643 170.473,93.643 166.473,93.643 
			166.473,147.643 139.136,147.643 129.104,77.42 168.121,48.157 192.473,40.04 192.473,29.644 238.473,29.644 238.473,40.04 
			262.823,48.157 301.841,77.42 		"/>
	</g>
	<g>
		<path fill="#17945C" d="M238.473,21.644h-46v-5c0-12.682,10.317-23,23-23c12.682,0,23,10.318,23,23V21.644z M203.473,11.644h24
			c-1.963-4.694-6.603-8-12-8C210.074,3.644,205.436,6.95,203.473,11.644z"/>
	</g>
	<g>
		<rect x="233.473" y="11.644" fill="#17945C" width="18" height="10"/>
	</g>
	<g>
		<polygon fill="#17945C" points="215.473,85.029 168.615,66.286 172.329,57 215.473,74.258 258.616,57 262.329,66.286 		"/>
	</g>
	<g>
		<polygon fill="#17945C" points="215.473,94.029 168.615,75.286 172.329,66 215.473,83.258 258.616,66 262.329,75.286 		"/>
	</g>
	<g>
		<polygon fill="#17945C" points="215.473,121.029 172.859,103.983 176.573,94.698 215.473,110.258 254.37,94.7 258.083,103.985 		
			"/>
	</g>
	<g>
		<polygon fill="#17945C" points="215.473,130.029 173.712,113.325 177.426,104.04 215.473,119.258 253.52,104.038 257.234,113.323 
					"/>
	</g>
	<g>
		<path fill="#17945C" d="M197.473,16.644h18v-18C205.531-1.356,197.473,6.702,197.473,16.644z"/>
	</g>
</g>
</svg>
