<?xml version="1.0" encoding="utf-8"?>
<!-- Generator: Adobe Illustrator 16.0.4, SVG Export Plug-In . SVG Version: 6.00 Build 0)  -->
<!DOCTYPE svg PUBLIC "-//W3C//DTD SVG 1.1//EN" "http://www.w3.org/Graphics/SVG/1.1/DTD/svg11.dtd">
<svg version="1.1" id="Layer_1" xmlns="http://www.w3.org/2000/svg" xmlns:xlink="http://www.w3.org/1999/xlink" x="0px" y="0px"
	 width="488.664px" height="341.464px" viewBox="0 0 488.664 341.464" enable-background="new 0 0 488.664 341.464"
	 xml:space="preserve">
<g>
	<polygon fill="#17945C" points="49.249,276.826 35.167,313.454 21.085,276.826 5.694,276.826 0,340.31 14.467,340.31 
		17.469,302.681 17.854,302.681 30.857,339.925 39.476,339.925 52.479,302.681 52.864,302.681 55.866,340.31 70.333,340.31 
		64.639,276.826 	"/>
	<path fill="#17945C" d="M105.747,304.604c-3.231-3.154-7.618-4.924-12.928-4.924c-11.542,0-19.622,9.388-19.622,20.93
		s8.08,20.854,19.622,20.854c5.387,0,10.004-2.385,12.928-5.617h0.154v4.463h13.466v-39.476h-13.62V304.604z M96.898,329.845
		c-5.542,0-9.234-3.848-9.234-9.234c0-5.463,4.078-9.311,9.234-9.311c5.078,0,9.157,3.848,9.157,9.311
		C106.056,325.997,102.207,329.845,96.898,329.845z"/>
	<path fill="#17945C" d="M157.189,304.604c-3.23-3.154-7.617-4.924-12.928-4.924c-11.541,0-19.621,9.388-19.621,20.93
		s8.08,20.854,19.621,20.854c5.388,0,10.005-2.385,12.928-5.617h0.155v4.463h13.466v-66.178h-13.621V304.604z M148.341,329.845
		c-5.541,0-9.234-3.848-9.234-9.234c0-5.463,4.078-9.311,9.234-9.311c5.079,0,9.158,3.848,9.158,9.311
		C157.499,325.997,153.651,329.845,148.341,329.845z"/>
	<path fill="#17945C" d="M197.646,299.681c-11.928,0-21.7,9.388-21.7,20.93c0,11.465,9.772,20.854,21.7,20.854
		c8.771,0,16.005-2.848,20.468-10.312l-9.85-4.925c-3.31,3.54-5.232,4.387-9.618,4.387c-3.463,0-8.541-2.078-8.541-8.156h28.624
		c0.078-0.463,0.078-1.309,0.078-1.848C218.808,306.76,209.649,299.681,197.646,299.681z M190.49,314.916
		c0.23-3.616,2.848-6.387,7.541-6.387c4.001,0,6.848,2.231,7.463,6.387H190.49z"/>
	<rect x="246.194" y="300.834" fill="#17945C" width="13.621" height="39.476"/>
	<circle fill="#17945C" cx="253.197" cy="284.521" r="8.08"/>
	<path fill="#17945C" d="M292.678,299.681c-4.31,0-8.233,2.23-11.312,5.309h-0.154v-4.155h-13.62v39.476h13.62v-22.315
		c0-3.925,4.002-7.694,8.08-7.694c4.386,0,7.078,3.77,7.078,7.694v22.315h13.621v-26.009
		C309.991,303.296,299.91,299.681,292.678,299.681z"/>
	<polygon fill="#17945C" points="353.922,276.826 339.456,276.826 339.456,340.31 375.777,340.31 375.777,327.612 353.922,327.612 	
		"/>
	<path fill="#17945C" d="M410.291,326.228c-3.308,3.54-5.231,4.387-9.618,4.387c-3.463,0-8.541-2.078-8.541-8.156h28.625
		c0.077-0.463,0.077-1.309,0.077-1.848c0-13.851-9.157-20.93-21.161-20.93c-11.928,0-21.7,9.388-21.7,20.93
		c0,11.465,9.772,20.854,21.7,20.854c8.771,0,16.006-2.848,20.469-10.312L410.291,326.228z M400.058,308.529
		c4.002,0,6.85,2.231,7.465,6.387h-15.006C392.747,311.3,395.364,308.529,400.058,308.529z"/>
	<polygon fill="#17945C" points="466.938,300.834 451.01,300.834 444.16,309.991 437.312,300.834 421.384,300.834 435.851,319.687 
		418.998,340.31 435.466,340.31 444.16,329.151 452.856,340.31 469.323,340.31 452.472,319.687 	"/>
	<path fill="#17945C" d="M479.814,323.843c-4.848,0-8.772,3.924-8.772,8.849c0,4.849,3.925,8.772,8.772,8.772
		c4.925,0,8.85-3.924,8.85-8.772C488.664,327.767,484.739,323.843,479.814,323.843z"/>
	<path fill="#17945C" d="M328.867,28.464C309.979,9.577,281.538,0,244.332,0s-65.648,9.577-84.536,28.464
		S131.332,75.794,131.332,113s9.577,65.647,28.464,84.535S207.126,226,244.332,226s65.647-9.577,84.535-28.465
		s28.465-47.329,28.465-84.535S347.755,47.352,328.867,28.464z M244.332,216c-69.309,0-103-33.691-103-103s33.691-103,103-103
		s103,33.691,103,103S313.641,216,244.332,216z"/>
	<path fill="#17945C" d="M291.683,79.519l-24.351-8.117V61.006h-46v10.396l-24.351,8.117l-39.018,29.263l10.032,70.224h27.336v-54
		h2.707l5.728,63h81.132l5.728-63h2.706v54h27.337l10.031-70.224L291.683,79.519z M280.385,127.201l-36.053,14.42l-36.053-14.421
		l-1.531-16.842l37.584,15.034l37.584-15.033L280.385,127.201z M231.332,78.61v-7.604h26v7.604l26.662,8.887l-0.213,2.344
		l-39.449,15.78l-39.449-15.78l-0.213-2.344L231.332,78.61z M185.332,115.006v54h-8.664l-7.968-55.776l26.463-19.847l1.966,21.624
		H185.332z M212.898,178.006l-2.753-30.29l34.188,13.675l34.188-13.676l-2.754,30.291H212.898z M311.995,169.006h-8.663v-54h-11.798
		l1.966-21.624l26.464,19.848L311.995,169.006z"/>
	<path fill="#17945C" d="M267.332,53.006h13v-10h-13.554c-2.29-10.285-11.481-18-22.446-18c-12.682,0-23,10.318-23,23v5h41H267.332z
		 M244.332,43.006v-8c5.397,0,10.037,3.306,12,8H244.332z"/>
</g>
</svg>
