<?xml version="1.0" encoding="utf-8"?>
<!-- Generator: Adobe Illustrator 16.0.4, SVG Export Plug-In . SVG Version: 6.00 Build 0)  -->
<!DOCTYPE svg PUBLIC "-//W3C//DTD SVG 1.1//EN" "http://www.w3.org/Graphics/SVG/1.1/DTD/svg11.dtd">
<svg version="1.1" id="Layer_1" xmlns="http://www.w3.org/2000/svg" xmlns:xlink="http://www.w3.org/1999/xlink" x="0px" y="0px"
	 width="400px" height="400px" viewBox="0 0 400 400" enable-background="new 0 0 400 400" xml:space="preserve">
<g>
	<g>
		<path fill="#FFE83E" d="M329.634,14.822c-5.854-2.927-15.432-2.927-21.285,0l-48.953,24.477
			c-5.854,2.927-10.643,10.676-10.643,17.22v75.9c0,6.544-3.786,8.113-8.414,3.485l-85.058-85.059
			c-4.628-4.628-13.203-10.809-19.057-13.736L91.65,14.823c-5.854-2.927-15.432-2.927-21.285,0L21.413,39.299
			c-5.854,2.927-10.643,10.676-10.643,17.22v286.962c0,6.545,4.789,14.294,10.643,17.221l48.952,24.477
			c5.854,2.927,15.432,2.927,21.285,0l48.953-24.477c5.854-2.927,10.643-10.676,10.643-17.221v-75.896
			c0-6.545,3.786-8.113,8.414-3.485l85.056,85.056c4.628,4.628,13.203,10.809,19.057,13.735l44.576,22.288
			c5.854,2.927,15.432,2.927,21.285,0l48.952-24.477c5.854-2.927,10.643-10.676,10.643-17.221V56.519
			c0-6.544-4.789-14.293-10.643-17.22L329.634,14.822z M343.822,45.938c5.854,2.927,5.854,7.716,0,10.643l-14.188,7.094
			c-5.854,2.927-15.432,2.927-21.285,0l-14.189-7.094c-5.854-2.927-5.854-7.716,0-10.643l14.189-7.095
			c5.854-2.927,15.432-2.927,21.285,0L343.822,45.938z M240.339,166.291c4.628,4.628,8.414,13.769,8.414,20.313v35.058
			c0,6.545-3.786,8.113-8.414,3.485l-83.824-83.826c-4.628-4.628-12.54-6.705-17.583-4.617c-5.044,2.089-9.17,9.152-9.17,15.697
			v39.513c0,6.544,0,17.253,0,23.798v2.134c0,6.545,0,17.254,0,23.799v77.814c0,6.545-4.789,9.505-10.643,6.578l-16.727-8.363
			c-5.854-2.927-10.643-10.676-10.643-17.221V50.792c0-6.544,4.789-9.504,10.643-6.578l21.105,10.552
			c5.854,2.927,14.429,9.107,19.057,13.735L240.339,166.291z M59.623,44.215c5.854-2.927,10.643,0.033,10.643,6.577v249.662
			c0,6.545-4.789,14.294-10.643,17.221l-16.726,8.363c-5.854,2.927-10.643-0.033-10.643-6.578V69.798
			c0-6.544,4.789-14.293,10.643-17.221L59.623,44.215z M56.177,354.06c-5.854-2.927-5.854-7.717,0.001-10.643l14.187-7.093
			c5.854-2.926,15.433-2.926,21.287,0l14.188,7.093c5.854,2.926,5.854,7.715,0.001,10.643l-14.189,7.096
			c-5.854,2.928-15.432,2.927-21.285,0L56.177,354.06z M159.66,233.713c-4.628-4.628-8.414-13.769-8.414-20.312v-35.06
			c0-6.544,3.786-8.113,8.414-3.485l83.822,83.823c4.628,4.628,12.541,6.704,17.584,4.614c5.044-2.089,9.171-9.153,9.171-15.698
			v-39.507c0-6.544,0-17.253,0-23.797v-2.141c0-6.544,0-17.253,0-23.798V80.541c0-6.544,4.789-9.504,10.643-6.578l16.727,8.363
			c5.854,2.927,10.643,10.676,10.643,17.22v249.661c0,6.545-4.789,9.505-10.643,6.578l-21.104-10.551
			c-5.854-2.927-14.429-9.107-19.057-13.735L159.66,233.713z M340.376,355.785c-5.854,2.927-10.643-0.033-10.643-6.578V99.546
			c0-6.544,4.789-14.293,10.643-17.22l16.726-8.363c5.854-2.927,10.643,0.033,10.643,6.578v249.662
			c0,6.545-4.789,14.294-10.643,17.221L340.376,355.785z"/>
	</g>
</g>
</svg>
