<svg width="16" height="16" viewBox="0 0 16 16" fill="none" xmlns="http://www.w3.org/2000/svg">
<path fill-rule="evenodd" clip-rule="evenodd" d="M5.68625 3.05176e-05L6.26797 3.05176e-05L9.73207 3.05176e-05L10.3138 3.05176e-05L10.6013 0.505708L12.1781 3.27838L13.9282 2.26792L14.4282 3.13395L13.3301 7.23203L9.23205 6.13395L8.73205 5.26792L10.446 4.2784L9.15035 2.00003L6.84969 2.00003L6.29554 2.9745L4.56345 1.97448L5.39869 0.505705L5.68625 3.05176e-05ZM13.1649 9.05967L13.7039 10.0076L12.6056 12L10 12L10 9.99998H9L6 13L9 16H10L10 14L13.1962 14H13.7868L14.0719 13.4828L15.7257 10.4828L15.9961 9.99245L15.7193 9.50571L14.897 8.05965L13.1649 9.05967ZM3.39448 12H4.5L4.5 14L2.80387 14L2.21327 14L1.92813 13.4828L0.274263 10.4828L0.00392914 9.99245L0.280725 9.5057L1.84462 6.75557L0.0718001 5.73203L0.571799 4.86601L4.66988 3.76793L5.76795 7.86601L5.26795 8.73203L3.57671 7.75559L2.29607 10.0076L3.39448 12Z" fill="#34788E"/>
</svg>
