<svg width="16" height="16" viewBox="0 0 16 16" fill="none" xmlns="http://www.w3.org/2000/svg">
<path d="M5.68625 0H10.3138L12.178 3.27835L13.9282 2.26789L14.4282 3.13392L13.3301 7.232L9.23205 6.13392L8.73205 5.26789L10.446 4.27837L9.15035 2L6.84969 2L6.29554 2.97447L4.56345 1.97445L5.68625 0Z" fill="#7A8085"/>
<path d="M13.1649 9.05964L13.7039 10.0076L12.6056 12H10L10 9.99995H9L6 12.9999L9 15.9999H10L10 14H13.7868L15.9961 9.99242L14.897 8.05962L13.1649 9.05964Z" fill="#7A8085"/>
<path d="M3.39448 12H4.5V14H2.21327L0.00392723 9.99242L1.84462 6.75554L0.0717982 5.732L0.571797 4.86598L4.66988 3.7679L5.76795 7.86598L5.26795 8.732L3.57671 7.75556L2.29607 10.0076L3.39448 12Z" fill="#7A8085"/>
</svg>
